<svg width="500" height="500" viewBox="0 0 500 500" fill="none" xmlns="http://www.w3.org/2000/svg">
<path d="M310.5 229L289 242.5L278.5 310L311 247.5L310.5 229Z" fill="white"/>
<path d="M212.5 162L220.5 296L253 362.5L245 305L244 287.5L240 193.5L212.5 162Z" fill="white"/>
<path d="M212.5 162L240 193.5L250.5 100L212.5 162Z" fill="white"/>
<path fill-rule="evenodd" clip-rule="evenodd" d="M160 260.5L121 214L132 266L229 386.5L195.5 319L160 270V260.5Z" fill="white"/>
<path d="M379.5 200L326.5 237.5L299.25 292.5L272 347.5L262.25 374L252.5 400.5L271.5 400L283 384.5M379.5 200L374.5 251M379.5 200L365.75 231.5L352 263M374.5 251L327.5 333.5L283 384.5M374.5 251L352 263M283 384.5L317.5 323.75L352 263M184 263.5L161 230L121 214M184 263.5L205 292L246 380.5L240 396.5L229 386.5M184 263.5L160 260.5M229 386.5L132 266M229 386.5L195.5 319L160 270M132 266L121 214M132 266L160 270M121 214L160 260.5M212.5 162L220.5 296L253 362.5M212.5 162L240 193.5M212.5 162L250.5 100M240 193.5L244 287.5L245 305L253 362.5M240 193.5L250.5 100M253 362.5L254 364.5L264 341.5L283 174L250.5 100M160 260.5V270M310.5 229L289 242.5L278.5 310L311 247.5L310.5 229ZM374 336L333 384L294.5 400.5H286.5L342.5 340L374 336ZM155.5 319L121 308L148.5 349.5L220.5 400H225L155.5 319ZM155 397.5L175.5 385L200 402.5L181 402L155 397.5Z" stroke="#1A7DFF"/>
<path d="M175.5 385L155 397.5L181 402L200 402.5L175.5 385Z" fill="white" stroke="#1A7DFF"/>
<path d="M121 308L155.5 319L225 400H220.5L148.5 349.5L121 308Z" fill="white" stroke="#1A7DFF"/>
<path d="M333 384L374 336L342.5 340L286.5 400.5H294.5L333 384Z" fill="white" stroke="#1A7DFF"/>
<path d="M327.5 333.5L373.5 252L352 263L317.5 323.75L283 384.5L327.5 333.5Z" fill="white" stroke="#1A7DFF"/>
<path d="M374.5 251L379.5 200L365.75 231.5L352 263L374.5 251Z" fill="white" stroke="#1A7DFF"/>
<path d="M379 200.5L327 236.5L299.75 291.5L272.5 346.5L262.75 373L253 399.5L272 399L283.5 383.5L318 322.75L352.5 262L366.25 230.5L379 200.5Z" fill="white" stroke="#1A7DFF"/>
<path d="M160.819 230L120 213L159.307 260L184 263L172.157 246.25L160.819 230Z" fill="white" stroke="#1A7DFF"/>
<path d="M205 291.5L184 263L160 260V269.5L195.5 318.5L229 386L240 396L246 380L205 291.5Z" fill="white" stroke="#1A7DFF"/>
<path d="M132.5 266L229 386.5L195.5 319L160 270L132.5 266Z" fill="white" stroke="#1A7DFF"/>
<path d="M160 260.5L120 213L126 239L131.5 265.5L146 267.5L160 270V260.5Z" fill="white" stroke="#1A7DFF"/>
<path d="M245 304L244 286.5L242 239.5L240 192.5L251 101L283 173L264 340.5L254 363.5L253 361.5L245 304Z" fill="white" stroke="#1A7DFF"/>
</svg>
